<svg xmlns="http://www.w3.org/2000/svg" viewBox="0 0 128 128" width="256" height="256">
  <path fill="#E76F00" d="M64 0C28.654 0 0 28.654 0 64s28.654 64 64 64 64-28.654 64-64S99.346 0 64 0z"/>
  <path fill="#FFFFFF" d="M64 106c-24.854 0-45-7.711-45-17.205 0-4.338 4.063-8.251 11-11.34v6.588C30 89.711 48.17 96 64 96s34-6.289 34-12.957v-6.588c6.937 3.089 11 7.002 11 11.34C109 98.289 88.854 106 64 106z"/>
  <path fill="#FFFFFF" d="M64 90c-15.464 0-28-4.411-28-9.786 0-2.28 1.618-4.349 4.373-6.098l5.718 6.109c5.017 1.146 12.305 1.774 17.909 1.774 5.604 0 12.891-.628 17.909-1.774l5.718-6.109C90.382 75.865 92 77.934 92 80.214 92 85.589 79.464 90 64 90z"/>
</svg>
