<svg xmlns="http://www.w3.org/2000/svg" viewBox="0 0 128 128" width="256" height="256">
  <path fill="#3776AB" d="M63.9 1.6c-7.5 0-14.6.7-21 2.1-18.6 4.2-22.2 13.3-22.2 30.2v15.4h44.4v5.1H28.5C14.7 54.4 2.1 65.5 2.1 80c0 8.9 4.6 16.7 10.7 22.1 8.3 7.4 19.5 10.8 31.6 10.8h10.1c8.1 0 14.9 6.6 14.9 14.7v9.9h17.2c8.1 0 15.3-3.4 20.5-9 4.9-5.1 7.5-11.7 7.5-19.1V82.8H64.3v-5.1h47.2c14.4 0 28.8-11.5 28.8-27.7 0-8.6-3.7-16.4-9.8-22.2-7.7-7.3-18.5-10.8-31.2-10.8h-7.1c-8.4 0-15.1-6.6-15.1-14.9V1.6H63.9z"/>
</svg>
